# Blender 4.3.2
# www.blender.org
mtllib qr_code_d.mtl
o qrcode_box_d_Body1.040_Body1.036
v -0.050000 0.050001 0.000050
v -0.050000 0.050001 -0.000050
v -0.050000 0.000001 0.000000
v -0.050000 -0.049999 -0.000050
v -0.050000 -0.049999 0.000050
v 0.050000 0.050001 0.000050
v 0.050000 0.050001 -0.000050
v 0.000000 0.050001 0.000000
v 0.050000 -0.049999 0.000050
v 0.050000 -0.049999 -0.000050
v 0.050000 0.000001 0.000000
v 0.000000 -0.049999 0.000000
v 0.000000 0.000001 0.000050
v 0.000000 0.000001 -0.000050
vn -1.0000 -0.0000 -0.0000
vn -0.0000 1.0000 -0.0000
vn 1.0000 -0.0000 -0.0000
vn -0.0000 -1.0000 -0.0000
vn -0.0000 -0.0000 1.0000
vn -0.0000 -0.0000 -1.0000
vt 0.666667 0.333333
vt 0.666667 0.666666
vt 0.500001 0.500000
vt 0.333333 0.666666
vt 0.333333 0.333333
vt 0.333333 0.666667
vt 0.000000 0.666667
vt 0.166666 0.500000
vt 0.000000 0.333334
vt 0.333333 0.333334
vt 0.666667 0.000000
vt 0.499999 0.166666
vt 0.333333 0.000000
vt 1.000000 0.000000
vt 1.000000 0.333333
vt 0.833333 0.166667
vt -0.000000 0.663897
vt 0.333333 0.663897
vt 0.166667 0.830564
vt 0.333333 0.997231
vt -0.000000 0.997231
vt 1.000533 0.339673
vt 1.000533 0.673006
vt 0.833867 0.506339
vt 0.667200 0.673006
vt 0.667200 0.339673
s 1
usemtl DisplayD
f 1/1/1 2/2/1 3/3/1
f 3/3/1 2/2/1 4/4/1
f 3/3/1 4/4/1 5/5/1
f 5/5/1 1/1/1 3/3/1
f 6/6/2 7/7/2 8/8/2
f 8/8/2 7/7/2 2/9/2
f 8/8/2 2/9/2 1/10/2
f 1/10/2 6/6/2 8/8/2
f 9/11/3 10/1/3 11/12/3
f 11/12/3 10/1/3 7/5/3
f 11/12/3 7/5/3 6/13/3
f 6/13/3 9/11/3 11/12/3
f 5/14/4 4/15/4 12/16/4
f 12/16/4 4/15/4 10/1/4
f 12/16/4 10/1/4 9/11/4
f 9/11/4 5/14/4 12/16/4
f 1/17/5 5/18/5 13/19/5
f 13/19/5 5/18/5 9/20/5
f 13/19/5 9/20/5 6/21/5
f 6/21/5 1/17/5 13/19/5
f 7/22/6 10/23/6 14/24/6
f 14/24/6 10/23/6 4/25/6
f 14/24/6 4/25/6 2/26/6
f 2/26/6 7/22/6 14/24/6
