# Blender v3.0.1 OBJ File: ''
# www.blender.org
mtllib Arena.mtl
o arena_frame_Body1.001
v 7.989725 7.998450 0.496362
v 0.013725 7.998450 0.496362
v 4.001725 7.992450 0.496361
v 0.013725 7.986450 0.496359
v 7.989725 7.986450 0.496359
v 8.001725 0.010451 0.494380
v 8.001725 7.986450 0.496359
v 7.995725 3.998451 0.495371
v 7.989725 0.010451 0.494380
v 0.013725 0.010451 0.494380
v 4.001725 0.004451 0.494378
v 0.013725 -0.001549 0.494377
v 7.989725 -0.001549 0.494377
v 0.007725 3.998451 0.495371
v 0.001725 7.986450 0.496359
v 0.001725 0.010451 0.494380
v 7.989725 7.986575 -0.003641
v 7.989725 3.998513 0.245371
v 7.989725 0.010575 -0.005620
v 0.013725 7.986575 -0.003641
v 4.001725 7.986513 0.246359
v 0.013725 0.010575 -0.005620
v 0.013725 3.998513 0.245371
v 4.001725 0.010513 0.244380
v 8.001725 -0.001425 -0.005623
v 8.001725 0.010575 -0.005620
v 8.001725 -0.001549 0.494377
v 8.001725 7.986575 -0.003641
v 8.001725 7.998575 -0.003638
v 8.001725 7.998450 0.496362
v 0.001725 -0.001425 -0.005623
v 0.013725 -0.001425 -0.005623
v 0.001725 -0.001549 0.494377
v 7.989725 -0.001425 -0.005623
v 0.001725 7.998575 -0.003638
v 0.001725 7.986575 -0.003641
v 0.001725 7.998450 0.496362
v 0.001725 0.010575 -0.005620
v 7.989725 7.998575 -0.003638
v 0.013725 7.998575 -0.003638
vt 398.799988 400.000000
vt -398.799988 400.000000
vt -0.000000 399.399994
vt -398.799988 398.799988
vt 398.799988 398.799988
vt 400.000000 -398.799988
vt 400.000000 398.799988
vt 399.399994 -0.000000
vt 398.799988 -398.799988
vt -398.799988 -398.799988
vt 0.000000 -399.399994
vt -398.799988 -400.000000
vt 398.799988 -400.000000
vt -399.399994 -0.000000
vt -400.000000 398.799988
vt -400.000000 -398.799988
vt -0.000000 50.000000
vt -0.000000 -0.000000
vt 398.799988 25.000000
vt 797.599976 0.000000
vt 797.599976 50.000000
vt -0.000000 50.000000
vt -0.000000 -0.000000
vt 398.799988 25.000000
vt 797.599976 0.000000
vt 797.599976 50.000000
vt -0.000000 50.000000
vt -0.000000 -0.000000
vt 398.799988 25.000000
vt 797.599976 0.000000
vt 797.599976 50.000000
vt -0.000000 50.000000
vt -0.000000 -0.000000
vt 398.799988 25.000000
vt 797.599976 0.000000
vt 797.599976 50.000000
vt -0.000000 -0.000000
vt 1.200000 -0.000000
vt -0.000000 50.000000
vt 1.200000 50.000000
vt 798.799988 0.000000
vt 798.799988 50.000000
vt 800.000000 0.000000
vt 800.000000 50.000000
vt -0.000000 -0.000000
vt 1.200000 -0.000000
vt -0.000000 50.000000
vt 1.200000 50.000000
vt 798.799988 0.000000
vt 798.799988 50.000000
vt 800.000000 0.000000
vt 800.000000 50.000000
vt -0.000000 -0.000000
vt 1.200000 -0.000000
vt -0.000000 50.000000
vt 1.200000 50.000000
vt 798.799988 0.000000
vt 798.799988 50.000000
vt 800.000000 0.000000
vt 800.000000 50.000000
vt -0.000000 -0.000000
vt 1.200000 -0.000000
vt -0.000000 50.000000
vt 1.200000 50.000000
vt 798.799988 0.000000
vt 798.799988 50.000000
vt 800.000000 0.000000
vt 800.000000 50.000000
vt 398.799988 -398.799988
vt 400.000000 398.799988
vt 398.799988 398.799988
vt 398.799988 400.000000
vt -398.799988 400.000000
vt -398.799988 -398.799988
vt 398.799988 -400.000000
vt 400.000000 -400.000000
vt 400.000000 -398.799988
vt -398.799988 398.799988
vt -400.000000 -398.799988
vt -398.799988 -400.000000
vt -400.000000 400.000000
vt -400.000000 398.799988
vt -400.000000 -400.000000
vt 400.000000 400.000000
vn 0.0000 -0.0002 1.0000
vn -0.0000 -0.0003 1.0000
vn 0.0003 -0.0002 1.0000
vn -0.0002 -0.0002 1.0000
vn -1.0000 0.0000 0.0000
vn 0.0000 -1.0000 -0.0003
vn -0.0000 -1.0000 -0.0002
vn 1.0000 0.0000 0.0000
vn 0.0000 1.0000 0.0002
vn 1.0000 0.0002 0.0000
vn 1.0000 0.0003 0.0000
vn 1.0000 0.0001 0.0000
vn -0.9988 0.0497 -0.0006
vn 0.0000 1.0000 0.0003
vn 0.0000 0.0002 -1.0000
vn 0.0000 0.0003 -1.0000
usemtl Paint_-_Enamel_Glossy_(White).002
s 1
f 1/1/1 2/2/2 3/3/2
f 3/3/2 2/2/2 4/4/2
f 3/3/2 4/4/2 5/5/2
f 5/5/2 1/1/2 3/3/2
f 6/6/3 7/7/1 8/8/1
f 8/8/1 7/7/1 5/5/1
f 8/8/1 5/5/1 9/9/1
f 9/9/1 6/6/1 8/8/1
f 9/9/2 10/10/2 11/11/2
f 11/11/2 10/10/2 12/12/2
f 11/11/2 12/12/1 13/13/2
f 13/13/2 9/9/2 11/11/2
f 10/10/1 4/4/1 14/14/1
f 14/14/1 4/4/1 15/15/1
f 14/14/1 15/15/4 16/16/1
f 16/16/1 10/10/1 14/14/1
f 5/17/5 17/18/5 18/19/5
f 18/19/5 17/18/5 19/20/5
f 18/19/5 19/20/5 9/21/5
f 9/21/5 5/17/5 18/19/5
f 4/22/6 20/23/6 21/24/7
f 21/24/7 20/23/6 17/25/6
f 21/24/7 17/25/6 5/26/6
f 5/26/6 4/22/6 21/24/7
f 10/27/8 22/28/8 23/29/8
f 23/29/8 22/28/8 20/30/8
f 23/29/8 20/30/8 4/31/8
f 4/31/8 10/27/8 23/29/8
f 9/32/9 19/33/9 24/34/9
f 24/34/9 19/33/9 22/35/9
f 24/34/9 22/35/9 10/36/9
f 10/36/9 9/32/9 24/34/9
f 25/37/10 26/38/10 27/39/10
f 27/39/8 26/38/11 6/40/8
f 26/38/11 28/41/12 6/40/8
f 6/40/8 28/41/12 7/42/8
f 7/42/8 28/41/12 29/43/12
f 7/42/8 29/43/8 30/44/8
f 31/45/7 32/46/7 33/47/7
f 33/47/7 32/46/7 12/48/7
f 32/46/7 34/49/7 12/48/7
f 12/48/7 34/49/7 13/50/7
f 13/50/7 34/49/7 25/51/7
f 13/50/7 25/51/7 27/52/7
f 35/53/5 36/54/5 37/55/13
f 37/55/13 36/54/5 15/56/5
f 36/54/5 38/57/5 15/56/5
f 15/56/5 38/57/5 16/58/5
f 16/58/5 38/57/5 31/59/5
f 16/58/5 31/59/5 33/60/5
f 29/61/14 39/62/14 30/63/14
f 30/63/14 39/62/14 1/64/14
f 39/62/14 40/65/9 1/64/14
f 1/64/14 40/65/9 2/66/9
f 2/66/9 40/65/9 35/67/14
f 2/66/14 35/67/14 37/68/13
f 19/69/15 32/70/16 22/71/15
f 22/71/15 32/70/16 38/72/15
f 22/71/15 38/72/15 36/73/15
f 17/74/15 26/75/15 19/69/15
f 19/69/15 26/75/15 25/76/16
f 19/69/15 25/76/16 34/77/16
f 20/78/15 39/79/16 17/74/15
f 17/74/15 39/79/16 28/80/15
f 17/74/15 28/80/15 26/75/15
f 22/71/15 36/73/15 20/78/15
f 20/78/15 36/73/15 35/81/16
f 20/78/15 35/81/16 40/82/16
f 40/82/16 39/79/16 20/78/15
f 39/79/16 29/83/16 28/80/15
f 34/77/16 32/70/16 19/69/15
f 32/70/16 31/84/16 38/72/15
o Plane
v 8.000000 0.000000 0.000000
v 0.000000 8.000000 -0.000003
v 0.000000 0.000000 0.000000
v 8.000000 8.000000 -0.000003
vt 1.000000 0.000000
vt 0.000000 1.000000
vt 0.000000 0.000000
vt 1.000000 1.000000
vn 0.0000 0.0000 1.0000
usemtl None.001
s 1
f 41/85/17 42/86/17 43/87/17
f 41/85/17 44/88/17 42/86/17
