# Blender 3.6.4
# www.blender.org
mtllib Arena.mtl
o arena_frame_Body1.001
v 0.013725 7.986450 0.496359
v 0.013725 7.998450 0.496362
v 0.001725 7.986450 0.496359
v 7.989725 7.998450 0.496362
v 4.001725 7.992450 0.496361
v 7.989725 7.986450 0.496359
v 8.001725 7.986450 0.496359
v 8.001725 0.010451 0.494380
v 7.995725 3.998451 0.495371
v 7.989725 0.010451 0.494380
v 0.013725 0.010451 0.494380
v 0.001725 0.010451 0.494380
v 0.013725 -0.001549 0.494377
v 4.001725 0.004451 0.494378
v 7.989725 -0.001549 0.494377
v 0.007725 3.998451 0.495371
v 7.989725 7.986575 -0.003641
v 7.989725 3.998513 0.245371
v 7.989725 0.010575 -0.005620
v 0.013725 7.986575 -0.003641
v 4.001725 7.986513 0.246359
v 0.013725 0.010575 -0.005620
v 0.013725 3.998513 0.245371
v 4.001725 0.010513 0.244380
v 8.001725 -0.001425 -0.005623
v 8.001725 0.010575 -0.005620
v 8.001725 -0.001549 0.494377
v 8.001725 7.986575 -0.003641
v 8.001725 7.998575 -0.003638
v 8.001725 7.998450 0.496362
v 0.001725 -0.001425 -0.005623
v 0.013725 -0.001425 -0.005623
v 0.001725 -0.001549 0.494377
v 7.989725 -0.001425 -0.005623
v 0.001725 7.998575 -0.003638
v 0.001725 7.986575 -0.003641
v 0.001725 7.998450 0.496362
v 0.001725 0.010575 -0.005620
v 7.989725 7.998575 -0.003638
v 0.013725 7.998575 -0.003638
vn -0.0000 -0.0003 1.0000
vn -0.0000 -0.0002 1.0000
vn -1.0000 -0.0000 -0.0000
vn -0.0000 -1.0000 -0.0003
vn -0.0000 -1.0000 -0.0002
vn 1.0000 -0.0000 -0.0000
vn -0.0000 1.0000 0.0002
vn 1.0000 0.0002 -0.0000
vn 1.0000 0.0001 -0.0000
vn -0.9988 0.0497 -0.0006
vn -0.0000 1.0000 0.0003
vn -0.0000 0.0002 -1.0000
vt 398.799988 400.000000
vt -398.799988 400.000000
vt -0.000000 399.399994
vt -398.799988 398.799988
vt 398.799988 398.799988
vt 400.000000 -398.799988
vt 400.000000 398.799988
vt 399.399994 -0.000000
vt 398.799988 -398.799988
vt -398.799988 -398.799988
vt 0.000000 -399.399994
vt -398.799988 -400.000000
vt 398.799988 -400.000000
vt -399.399994 -0.000000
vt -400.000000 398.799988
vt -400.000000 -398.799988
vt -0.000000 50.000000
vt -0.000000 -0.000000
vt 398.799988 25.000000
vt 797.599976 0.000000
vt 797.599976 50.000000
vt 1.200000 -0.000000
vt 1.200000 50.000000
vt 798.799988 0.000000
vt 798.799988 50.000000
vt 800.000000 0.000000
vt 800.000000 50.000000
vt 400.000000 -400.000000
vt -400.000000 400.000000
vt -400.000000 -400.000000
vt 400.000000 400.000000
s 1
usemtl Paint_-_Enamel_Glossy_(White).002
f 4/1/1 2/2/1 5/3/1
f 5/3/1 2/2/1 1/4/1
f 5/3/1 1/4/1 6/5/1
f 6/5/1 4/1/1 5/3/1
f 8/6/2 7/7/2 9/8/2
f 9/8/2 7/7/2 6/5/2
f 9/8/2 6/5/2 10/9/2
f 10/9/2 8/6/2 9/8/2
f 10/9/1 11/10/1 14/11/1
f 14/11/1 11/10/1 13/12/1
f 14/11/1 13/12/1 15/13/1
f 15/13/1 10/9/1 14/11/1
f 11/10/2 1/4/2 16/14/2
f 16/14/2 1/4/2 3/15/2
f 16/14/2 3/15/2 12/16/2
f 12/16/2 11/10/2 16/14/2
f 6/17/3 17/18/3 18/19/3
f 18/19/3 17/18/3 19/20/3
f 18/19/3 19/20/3 10/21/3
f 10/21/3 6/17/3 18/19/3
f 1/17/4 20/18/4 21/19/5
f 21/19/5 20/18/4 17/20/4
f 21/19/5 17/20/4 6/21/4
f 6/21/4 1/17/4 21/19/5
f 11/17/6 22/18/6 23/19/6
f 23/19/6 22/18/6 20/20/6
f 23/19/6 20/20/6 1/21/6
f 1/21/6 11/17/6 23/19/6
f 10/17/7 19/18/7 24/19/7
f 24/19/7 19/18/7 22/20/7
f 24/19/7 22/20/7 11/21/7
f 11/21/7 10/17/7 24/19/7
f 25/18/8 26/22/9 27/17/6
f 27/17/6 26/22/9 8/23/6
f 26/22/9 28/24/9 8/23/6
f 8/23/6 28/24/9 7/25/6
f 7/25/6 28/24/9 29/26/9
f 7/25/6 29/26/9 30/27/6
f 31/18/5 32/22/5 33/17/5
f 33/17/5 32/22/5 13/23/5
f 32/22/5 34/24/5 13/23/5
f 13/23/5 34/24/5 15/25/5
f 15/25/5 34/24/5 25/26/5
f 15/25/5 25/26/5 27/27/5
f 35/18/3 36/22/3 37/17/10
f 37/17/10 36/22/3 3/23/3
f 36/22/3 38/24/3 3/23/3
f 3/23/3 38/24/3 12/25/3
f 12/25/3 38/24/3 31/26/3
f 12/25/3 31/26/3 33/27/3
f 29/18/11 39/22/11 30/17/11
f 30/17/11 39/22/11 4/23/11
f 39/22/11 40/24/7 4/23/11
f 4/23/11 40/24/7 2/25/7
f 2/25/7 40/24/7 35/26/11
f 2/25/7 35/26/11 37/27/10
f 19/9/12 32/7/12 22/5/12
f 22/5/12 32/7/12 38/1/12
f 22/5/12 38/1/12 36/2/12
f 17/10/12 26/13/12 19/9/12
f 19/9/12 26/13/12 25/28/12
f 19/9/12 25/28/12 34/6/12
f 20/4/12 39/16/12 17/10/12
f 17/10/12 39/16/12 28/12/12
f 17/10/12 28/12/12 26/13/12
f 22/5/12 36/2/12 20/4/12
f 20/4/12 36/2/12 35/29/12
f 20/4/12 35/29/12 40/15/12
f 40/15/12 39/16/12 20/4/12
f 39/16/12 29/30/12 28/12/12
f 34/6/12 32/7/12 19/9/12
f 32/7/12 31/31/12 38/1/12
o Plane
v 8.000000 0.000000 0.000000
v 0.000000 8.000000 -0.000003
v 0.000000 0.000000 0.000000
v 8.000000 8.000000 -0.000003
vn -0.0000 -0.0000 1.0000
vt 1.000000 0.000000
vt 0.000000 1.000000
vt 0.000000 0.000000
vt 1.000000 1.000000
s 1
usemtl None.001
f 41/32/13 42/33/13 43/34/13
f 41/32/13 44/35/13 42/33/13
