# Blender 3.6.2
# www.blender.org
mtllib codebar_box.mtl
o qrcode_box_a_Body1.037_Body1.002
v -0.049999 0.050073 -0.050000
v -0.049999 -0.049927 -0.050000
v -0.049999 0.000073 0.000000
v -0.049999 -0.049927 0.050000
v -0.049999 0.050073 0.050000
v 0.050001 0.050073 -0.050000
v 0.050001 -0.049927 -0.050000
v 0.000001 0.000073 -0.050000
v 0.050001 0.050073 0.050000
v 0.050001 -0.049927 0.050000
v 0.050001 0.000073 0.000000
v 0.000001 0.000073 0.050000
v 0.000001 0.050073 0.000000
v 0.000001 -0.049927 -0.000000
vn -1.0000 -0.0000 -0.0000
vn -0.0000 -0.0000 -1.0000
vn 1.0000 -0.0000 -0.0000
vn -0.0000 -0.0000 1.0000
vn -0.0000 1.0000 -0.0000
vn -0.0000 -1.0000 -0.0000
vt 0.333729 0.998512
vt 0.000396 0.998512
vt 0.167062 0.831847
vt 0.000396 0.665179
vt 0.333729 0.665179
vt 0.333343 0.330357
vt 0.333343 0.663691
vt 0.166676 0.497025
vt 0.000011 0.663691
vt 0.000011 0.330357
vt 0.333333 0.000000
vt 0.666667 0.000000
vt 0.500000 0.166668
vt 0.666667 0.333333
vt 0.333333 0.333333
vt 0.333333 0.333334
vt 0.166668 0.166668
vt 0.000000 0.333334
vt 0.000000 0.000000
vt 0.647348 0.372394
vt 0.647348 0.627607
vt 0.500390 0.500001
vt 0.353433 0.627607
vt 0.353433 0.372394
vt 1.000000 0.000000
vt 1.000000 0.333333
vt 0.833333 0.166667
s 1
usemtl DisplayA.002
f 1/1/1 2/2/1 3/3/1
f 3/3/1 2/2/1 4/4/1
f 3/3/1 4/4/1 5/5/1
f 5/5/1 1/1/1 3/3/1
f 6/6/2 7/7/2 8/8/2
f 8/8/2 7/7/2 2/9/2
f 8/8/2 2/9/2 1/10/2
f 1/10/2 6/6/2 8/8/2
f 9/11/3 10/12/3 11/13/3
f 11/13/3 10/12/3 7/14/3
f 11/13/3 7/14/3 6/15/3
f 6/15/3 9/11/3 11/13/3
f 5/11/4 4/16/4 12/17/4
f 12/17/4 4/16/4 10/18/4
f 12/17/4 10/18/4 9/19/4
f 9/19/4 5/11/4 12/17/4
f 1/20/5 5/21/5 13/22/5
f 13/22/5 5/21/5 9/23/5
f 13/22/5 9/23/5 6/24/5
f 6/24/5 1/20/5 13/22/5
f 7/25/6 10/26/6 14/27/6
f 14/27/6 10/26/6 4/14/6
f 14/27/6 4/14/6 2/12/6
f 2/12/6 7/25/6 14/27/6
