# Blender 4.1.1
# www.blender.org
mtllib shelf.mtl
o Body1
v 0.000000 1.000000 -0.000000
v 0.000000 1.480000 -0.000000
v 0.150000 1.480000 -0.000000
v 0.150000 1.000000 -0.000000
v 0.075000 1.240000 -0.000000
v 0.000000 1.000000 -3.000000
v 0.150000 1.000000 -3.000000
v 0.075000 1.000000 -1.500000
v 0.000000 1.480000 -3.000000
v 0.150000 1.480000 -3.000000
v 0.075000 1.240000 -3.000000
v 0.075000 1.480000 -1.500000
v 0.000000 2.000000 -0.000000
v 0.000000 2.480000 -0.000000
v 0.150000 2.480000 -0.000000
v 0.150000 2.000000 -0.000000
v 0.075000 2.240000 -0.000000
v 0.000000 2.000001 -3.000000
v 0.150000 2.000001 -3.000000
v 0.075000 2.000000 -1.500000
v 0.000000 2.480001 -3.000000
v 0.150000 2.480001 -3.000000
v 0.075000 2.240001 -3.000000
v 0.075000 2.480000 -1.500000
v 0.000000 1.500000 -0.000000
v 0.000000 1.980000 -0.000000
v 0.150000 1.980000 -0.000000
v 0.150000 1.500000 -0.000000
v 0.075000 1.740000 -0.000000
v 0.000000 1.500000 -3.000000
v 0.150000 1.500000 -3.000000
v 0.075000 1.500000 -1.500000
v 0.000000 1.980000 -3.000000
v 0.150000 1.980000 -3.000000
v 0.075000 1.740000 -3.000000
v 0.075000 1.980000 -1.500000
v 0.000000 2.500000 -0.000000
v 0.000000 2.980000 -0.000000
v 0.150000 2.980000 -0.000000
v 0.150000 2.500000 -0.000000
v 0.075000 2.740000 -0.000000
v 0.000000 2.500001 -3.000000
v 0.150000 2.500001 -3.000000
v 0.075000 2.500000 -1.500000
v 0.000000 2.980001 -3.000000
v 0.150000 2.980001 -3.000000
v 0.075000 2.740001 -3.000000
v 0.075000 2.980000 -1.500000
v 0.000000 3.000001 -3.020000
v 0.000000 3.000000 0.020000
v 0.150000 3.000000 0.020000
v 0.150000 3.000001 -3.020000
v 0.075000 3.000000 -1.500000
v 0.000000 -0.000000 -3.020000
v 0.150000 -0.000000 -3.020000
v 0.075000 1.500000 -3.020000
v 0.000000 -0.000000 -3.000000
v 0.150000 -0.000000 -3.000000
v 0.075000 -0.000000 -3.010000
v 0.000000 0.980000 -3.000000
v 0.150000 0.980000 -3.000000
v 0.075000 0.490000 -3.000000
v 0.000000 0.980000 -0.000000
v 0.150000 0.980000 -0.000000
v 0.075000 0.980000 -1.500000
v 0.000000 0.000000 0.000000
v 0.150000 0.000000 0.000000
v 0.075000 0.490000 -0.000000
v 0.000000 0.000000 0.020000
v 0.150000 0.000000 0.020000
v 0.075000 0.000000 0.010000
v 0.075000 1.500000 0.020000
v 0.000000 2.490000 -1.500000
v 0.000000 1.990000 -1.500000
v 0.000000 0.990000 -1.500000
vn -0.0000 -0.0000 -1.0000
vn -0.0000 1.0000 -0.0000
vn -0.0000 -0.0000 1.0000
vn -0.0000 -1.0000 -0.0000
vn 1.0000 -0.0000 -0.0000
vn -1.0000 -0.0000 -0.0000
vt 0.000000 15.000000
vt 0.000000 0.000000
vt 24.000000 7.500000
vt 48.000000 0.000000
vt 48.000000 15.000000
vt 150.000000 7.500000
vt 300.000000 0.000000
vt 300.000000 15.000000
vt 152.000000 7.500000
vt 304.000000 0.000000
vt 304.000000 15.000000
vt 1.000000 7.500000
vt 2.000000 0.000000
vt 2.000000 15.000000
vt 49.000000 7.500000
vt 98.000000 0.000000
vt 98.000000 15.000000
vt -100.000000 -150.000000
vt -148.000000 -150.000000
vt -150.000000 -152.000000
vt -148.000000 150.000000
vt -150.000000 152.000000
vt -100.000000 150.000000
vt -98.000000 150.000000
vt -98.000000 -150.000000
vt -50.000000 -150.000000
vt -48.000000 -150.000000
vt -48.000000 150.000000
vt 0.000000 150.000000
vt -50.000000 150.000000
vt 0.000000 -150.000000
vt 2.000000 150.000000
vt 150.000000 152.000000
vt 150.000000 -152.000000
vt 2.000000 -150.000000
vt 50.000000 -150.000000
vt 52.000000 -150.000000
vt 52.000000 150.000000
vt 50.000000 150.000000
vt 150.000000 150.000000
vt 150.000000 -150.000000
vt -150.000000 100.000000
vt -150.000000 148.000000
vt -152.000000 150.000000
vt 150.000000 148.000000
vt 152.000000 150.000000
vt 150.000000 100.000000
vt 150.000000 98.000000
vt 0.000000 99.000000
vt -150.000000 98.000000
vt 150.000000 48.000000
vt 0.000000 49.000000
vt -150.000000 48.000000
vt -150.000000 50.000000
vt 150.000000 0.000000
vt 150.000000 50.000000
vt -150.000000 0.000000
vt 150.000000 -2.000000
vt 152.000000 -150.000000
vt -152.000000 -150.000000
vt -150.000000 -2.000000
vt -150.000000 -50.000000
vt -150.000000 -52.000000
vt 0.000000 -51.000000
vt 150.000000 -52.000000
vt 150.000000 -50.000000
vt -150.000000 -150.000000
s 1
usemtl Material.001
f 4/1/1 1/2/1 5/3/1
f 5/3/1 1/2/1 2/4/1
f 5/3/1 2/4/1 3/5/1
f 3/5/1 4/1/1 5/3/1
f 7/1/2 6/2/2 8/6/2
f 8/6/2 6/2/2 1/7/2
f 8/6/2 1/7/2 4/8/2
f 4/8/2 7/1/2 8/6/2
f 10/1/3 9/2/3 11/3/3
f 11/3/3 9/2/3 6/4/3
f 11/3/3 6/4/3 7/5/3
f 7/5/3 10/1/3 11/3/3
f 3/1/4 2/2/4 12/6/4
f 12/6/4 2/2/4 9/7/4
f 12/6/4 9/7/4 10/8/4
f 10/8/4 3/1/4 12/6/4
f 16/1/1 13/2/1 17/3/1
f 17/3/1 13/2/1 14/4/1
f 17/3/1 14/4/1 15/5/1
f 15/5/1 16/1/1 17/3/1
f 19/1/2 18/2/2 20/6/2
f 20/6/2 18/2/2 13/7/2
f 20/6/2 13/7/2 16/8/2
f 16/8/2 19/1/2 20/6/2
f 22/1/3 21/2/3 23/3/3
f 23/3/3 21/2/3 18/4/3
f 23/3/3 18/4/3 19/5/3
f 19/5/3 22/1/3 23/3/3
f 15/1/4 14/2/4 24/6/4
f 24/6/4 14/2/4 21/7/4
f 24/6/4 21/7/4 22/8/4
f 22/8/4 15/1/4 24/6/4
f 28/1/1 25/2/1 29/3/1
f 29/3/1 25/2/1 26/4/1
f 29/3/1 26/4/1 27/5/1
f 27/5/1 28/1/1 29/3/1
f 31/1/2 30/2/2 32/6/2
f 32/6/2 30/2/2 25/7/2
f 32/6/2 25/7/2 28/8/2
f 28/8/2 31/1/2 32/6/2
f 34/1/3 33/2/3 35/3/3
f 35/3/3 33/2/3 30/4/3
f 35/3/3 30/4/3 31/5/3
f 31/5/3 34/1/3 35/3/3
f 27/1/4 26/2/4 36/6/4
f 36/6/4 26/2/4 33/7/4
f 36/6/4 33/7/4 34/8/4
f 34/8/4 27/1/4 36/6/4
f 40/1/1 37/2/1 41/3/1
f 41/3/1 37/2/1 38/4/1
f 41/3/1 38/4/1 39/5/1
f 39/5/1 40/1/1 41/3/1
f 43/1/2 42/2/2 44/6/2
f 44/6/2 42/2/2 37/7/2
f 44/6/2 37/7/2 40/8/2
f 40/8/2 43/1/2 44/6/2
f 46/1/3 45/2/3 47/3/3
f 47/3/3 45/2/3 42/4/3
f 47/3/3 42/4/3 43/5/3
f 43/5/3 46/1/3 47/3/3
f 39/1/4 38/2/4 48/6/4
f 48/6/4 38/2/4 45/7/4
f 48/6/4 45/7/4 46/8/4
f 46/8/4 39/1/4 48/6/4
f 52/1/2 49/2/2 53/9/2
f 53/9/2 49/2/2 50/10/2
f 53/9/2 50/10/2 51/11/2
f 51/11/2 52/1/2 53/9/2
f 55/1/1 54/2/1 56/6/1
f 56/6/1 54/2/1 49/7/1
f 56/6/1 49/7/1 52/8/1
f 52/8/1 55/1/1 56/6/1
f 58/1/4 57/2/4 59/12/4
f 59/12/4 57/2/4 54/13/4
f 59/12/4 54/13/4 55/14/4
f 55/14/4 58/1/4 59/12/4
f 61/1/3 60/2/3 62/15/3
f 62/15/3 60/2/3 57/16/3
f 62/15/3 57/16/3 58/17/3
f 58/17/3 61/1/3 62/15/3
f 64/1/4 63/2/4 65/6/4
f 65/6/4 63/2/4 60/7/4
f 65/6/4 60/7/4 61/8/4
f 61/8/4 64/1/4 65/6/4
f 67/1/1 66/2/1 68/15/1
f 68/15/1 66/2/1 63/16/1
f 68/15/1 63/16/1 64/17/1
f 64/17/1 67/1/1 68/15/1
f 70/1/4 69/2/4 71/12/4
f 71/12/4 69/2/4 66/13/4
f 71/12/4 66/13/4 67/14/4
f 67/14/4 70/1/4 71/12/4
f 51/1/3 50/2/3 72/6/3
f 72/6/3 50/2/3 69/7/3
f 72/6/3 69/7/3 70/8/3
f 70/8/3 51/1/3 72/6/3
f 40/18/5 39/19/5 51/20/5
f 51/20/5 39/19/5 46/21/5
f 51/20/5 46/21/5 52/22/5
f 52/22/5 46/21/5 43/23/5
f 52/22/5 43/23/5 22/24/5
f 22/24/5 43/23/5 40/18/5
f 22/24/5 40/18/5 15/25/5
f 15/25/5 40/18/5 51/20/5
f 15/25/5 51/20/5 16/26/5
f 16/26/5 51/20/5 27/27/5
f 16/26/5 27/27/5 34/28/5
f 31/29/5 52/22/5 34/28/5
f 34/28/5 52/22/5 19/30/5
f 34/28/5 19/30/5 16/26/5
f 28/31/5 10/32/5 31/29/5
f 31/29/5 10/32/5 55/33/5
f 31/29/5 55/33/5 52/22/5
f 27/27/5 51/20/5 28/31/5
f 28/31/5 51/20/5 70/34/5
f 28/31/5 70/34/5 3/35/5
f 3/35/5 70/34/5 4/36/5
f 4/36/5 70/34/5 64/37/5
f 4/36/5 64/37/5 61/38/5
f 22/24/5 19/30/5 52/22/5
f 3/35/5 10/32/5 28/31/5
f 10/32/5 7/39/5 55/33/5
f 55/33/5 7/39/5 61/38/5
f 55/33/5 61/38/5 58/40/5
f 7/39/5 4/36/5 61/38/5
f 70/34/5 67/41/5 64/37/5
f 42/42/6 45/43/6 49/44/6
f 49/44/6 45/43/6 38/45/6
f 49/44/6 38/45/6 50/46/6
f 50/46/6 38/45/6 37/47/6
f 50/46/6 37/47/6 14/48/6
f 14/48/6 37/47/6 73/49/6
f 14/48/6 73/49/6 21/50/6
f 21/50/6 73/49/6 42/42/6
f 21/50/6 42/42/6 49/44/6
f 37/47/6 42/42/6 73/49/6
f 26/51/6 74/52/6 33/53/6
f 33/53/6 74/52/6 18/54/6
f 33/53/6 18/54/6 49/44/6
f 49/44/6 18/54/6 21/50/6
f 25/55/6 50/46/6 26/51/6
f 26/51/6 50/46/6 13/56/6
f 26/51/6 13/56/6 74/52/6
f 74/52/6 13/56/6 18/54/6
f 30/57/6 2/58/6 25/55/6
f 25/55/6 2/58/6 69/59/6
f 25/55/6 69/59/6 50/46/6
f 33/53/6 49/44/6 30/57/6
f 30/57/6 49/44/6 54/60/6
f 30/57/6 54/60/6 9/61/6
f 9/61/6 54/60/6 6/62/6
f 6/62/6 54/60/6 60/63/6
f 6/62/6 60/63/6 75/64/6
f 75/64/6 60/63/6 63/65/6
f 75/64/6 63/65/6 1/66/6
f 1/66/6 63/65/6 69/59/6
f 1/66/6 69/59/6 2/58/6
f 14/48/6 13/56/6 50/46/6
f 9/61/6 2/58/6 30/57/6
f 1/66/6 6/62/6 75/64/6
f 54/60/6 57/67/6 60/63/6
f 63/65/6 66/41/6 69/59/6
